HIERARCHY
ROOT Hips
{
    OFFSET 6.154644966125488 56.94024848937988 -12.193470001220703
    CHANNELS 6 Xposition Yposition Zposition Zrotation Xrotation Yrotation
    JOINT RightUpLeg
    {
        OFFSET -6.154644966125488 0.0 0.0
        CHANNELS 3 Zrotation Xrotation Yrotation
        JOINT RightLeg
        {
            OFFSET 0.0 -26.456573486328125 0.0
            CHANNELS 3 Zrotation Xrotation Yrotation
            JOINT RightFoot
            {
                OFFSET 0.0 -30.483675003051758 0.0
                CHANNELS 3 Zrotation Xrotation Yrotation
                End Site RightFoot_End
                {
                    OFFSET 0.0 0.0 12.193470001220703
                }
            }
        }
    }
    JOINT LeftUpLeg
    {
        OFFSET 6.154644966125488 0.0 0.0
        CHANNELS 3 Zrotation Xrotation Yrotation
        JOINT LeftLeg
        {
            OFFSET 0.0 -26.456573486328125 0.0
            CHANNELS 3 Zrotation Xrotation Yrotation
            JOINT LeftFoot
            {
                OFFSET 0.0 -30.483675003051758 0.0
                CHANNELS 3 Zrotation Xrotation Yrotation
                End Site LeftFoot_End
                {
                    OFFSET 0.0 0.0 12.193470001220703
                }
            }
        }
    }
    JOINT Spine
    {
        OFFSET 0.0 19.46894645690918 0.0
        CHANNELS 3 Zrotation Xrotation Yrotation
        JOINT Spine3
        {
            OFFSET 0.0 19.795303344726562 0.0
            CHANNELS 3 Zrotation Xrotation Yrotation
            JOINT Neck
            {
                OFFSET 0.0 11.703651428222656 0.0
                CHANNELS 3 Zrotation Xrotation Yrotation
                End Site Head
                {
                    OFFSET 0.0 4.681460857391357 0.0
                }
            }
            JOINT LeftArm
            {
                OFFSET 9.203409194946289 0.0 0.0
                CHANNELS 3 Zrotation Xrotation Yrotation
                JOINT LeftForeArm
                {
                    OFFSET 24.427261352539062 0.0 0.0
                    CHANNELS 3 Zrotation Xrotation Yrotation
                    JOINT LeftHand
                    {
                        OFFSET 14.680553436279297 0.0 0.0
                        CHANNELS 3 Zrotation Xrotation Yrotation
                        End Site LeftWristEndSite
                        {
                            OFFSET 5.872220993041992 0.0 0.0
                        }
                    }
                }
            }
            JOINT RightArm
            {
                OFFSET -9.203409194946289 0.0 0.0
                CHANNELS 3 Zrotation Xrotation Yrotation
                JOINT RightForeArm
                {
                    OFFSET -24.427261352539062 0.0 0.0
                    CHANNELS 3 Zrotation Xrotation Yrotation
                    JOINT RightHand
                    {
                        OFFSET -14.680553436279297 0.0 0.0
                        CHANNELS 3 Zrotation Xrotation Yrotation
                        End Site RightWristEndSite
                        {
                            OFFSET -5.872220993041992 0.0 0.0
                        }
                    }
                }
            }
        }
    }
}
MOTION
Frames: 8
Frame Time: 0.03333333333333333
-0.0 69.04319763183594 0.0 5.042208307168809 -0.8914718588121747 -11.363908244611766 -8.699787630512375 -12.986984301377715 14.782088831116642 17.032384162757708 21.404607316161464 -26.555818830916238 -7.95138670365879e-16 -3.4483642953516864e-33 4.969616689786744e-16 -3.356837301663688 -4.258295142865509 -9.063237375336103 -2.515801327907751 14.061532942650395 13.812686595934236 -7.951386703658792e-16 7.58640144977371e-33 -1.0933156717530838e-15 0.86334031516694 4.344708763262297 -0.3746835378387752 1.0408907935478975e-07 -2.8620223605794914e-07 -4.066209441366993 -35.25743180260877 8.397633453153421 143.19950864900366 0.8026006312543478 -30.527137734532158 101.98201263214989 -140.17568566591245 -2.2399489057511435e-06 -9.601651482990108e-07 0.0 0.0 -6.361109362927033e-15 128.84863043106364 -29.15172810008125 21.32911166828986 56.402345658385 8.929915097061894e-07 -8.621328715692555e-06 -7.951386703658792e-16 0.0 0.0
-0.0 69.04319763183594 0.0 5.198070675993196 -0.95627015552249 -11.43923922164597 -8.869284071347293 -12.988607211733381 14.964283252543655 17.08613261508614 21.3695174083252 -26.688326734635098 -7.951386703658791e-16 -1.789062008323228e-15 -4.969616689786744e-16 -3.509157575870575 -4.128556173588725 -9.026266419556338 -2.5285580849650717 14.10958783529843 13.835917400187858 3.9756933518293955e-16 2.4848083448933722e-17 -1.4908850069360232e-16 0.975528901663283 4.310229475035074 -0.39267953380285964 -7.76027178132122e-07 -5.502764706039917e-07 -3.9083389998398887 -36.11277662199799 8.464616141729921 142.67351872285607 0.2886138501539694 -30.270087585486237 101.64954557792848 -140.45246770440093 6.740247469238566e-07 -1.9031336213212958e-06 0.0 0.0 -6.3611093629270335e-15 128.5095018774402 -29.22769914721701 21.016441395953127 56.78750082109062 -2.1019095660895203e-07 -5.6507736957955005e-06 7.951386703658792e-16 -7.951386703658792e-16 6.3611093629270335e-15
-0.0 69.04319763183594 0.0 5.178926930411622 -0.9384210523831625 -11.033172984333639 -8.880252359423386 -12.95884362803244 14.932724996367654 17.19073165862539 21.27987725760787 -26.876807668216202 -7.951386703658791e-16 -6.896728590703373e-34 9.939233379573489e-17 -3.0895295220039087 -4.177061539535123 -9.037746305382086 -2.8450359450562144 14.071677886915776 14.032432029856533 3.975693351829396e-16 -1.5902773407317584e-15 -9.93923337957349e-17 0.869174949494532 4.315428486574659 -0.3857176817018779 3.28393642619787e-07 -3.1643398952236294e-07 -4.2915012513618045 -35.977591930017624 8.475162017639866 143.05121286110227 0.51743117496347 -30.309089193009285 101.73235046981156 -140.39938069193582 1.7949622882407318e-06 5.833259605630579e-06 -1.5902773407317582e-15 -7.951386703658791e-16 -1.1034765745125397e-32 129.03050006715864 -29.014037951752393 21.180354845203272 56.43692307797045 -1.3380124552953455e-06 -4.7675461594533015e-06 8.827812596100317e-32 -1.5902773407317584e-15 6.3611093629270335e-15
-0.0 69.04319763183594 0.0 5.006714158356049 -0.8569782451527888 -11.241173486472007 -8.612479571705832 -12.976961174554415 14.613486413843638 16.87398420481383 21.31045422500299 -26.29112792763934 7.951386703658794e-16 -1.5902773407317588e-15 -5.963540027744096e-16 -2.899632380015495 -4.305755389011424 -9.00212347206165 -2.8936492870737034 14.126560866848608 14.216941890406552 3.975693351829396e-16 -1.5654292572828246e-15 -2.981770013872047e-16 0.7537764513718438 4.343262209311939 -0.3136447562664066 2.1950268224116575e-07 -8.281865290215068e-07 -4.265540498084799 -35.06540703030309 8.292927125066427 143.36588966220657 -0.29499305379874946 -30.161811303784344 100.7391350964416 -140.71273951262955 5.860201388564712e-07 -1.18383083764693e-06 0.0 0.0 0.0 128.91909346988655 -29.12412027785856 21.183292538488 56.50121070494239 1.1229142820807741e-06 -2.151248603316121e-06 0.0 0.0 0.0
-0.0 69.04319763183594 0.0 4.964057440193208 -1.065107897621714 -11.243268061414067 -8.664427276570038 -12.629022236527188 14.898645315366245 17.363204375939564 21.6044580117029 -26.948020284134355 2.4138550067461804e-32 1.3914926731402886e-15 -1.987846675914698e-15 -2.863252993048707 -4.2438696471831765 -9.59049022432117 -3.1249614008056854 14.61452905761634 14.59661689517196 0.0 0.0 2.981770013872047e-16 0.70569131340834 4.471099648574684 -0.37322886796855853 6.300660459135304e-07 4.77989193864628e-07 -4.269207641750641 -33.666798397785556 8.207633805065038 137.91484722356682 2.668389016147919 -31.572617224634726 104.9409087730089 -138.4987463032486 -8.36608248779234e-07 3.858338073561095e-06 1.5902773407317584e-15 7.951386703658791e-16 -6.3611093629270335e-15 134.2215902021674 -30.343784728279502 22.985939457430526 55.2649125911194 -5.51019284716558e-07 2.8128057146069963e-06 -1.5902773407317584e-15 0.0 0.0
-0.0 69.04319763183594 0.0 4.7901785375744685 -1.0324709931688625 -10.434308879520685 -8.816426794142592 -12.99407834045553 14.851744140820864 17.930592238447144 21.811103322271098 -26.985633407980185 7.951386703658792e-16 1.5902773407317584e-15 -9.93923337957349e-17 -2.608611246882492 -4.0390304998486455 -9.383445468577515 -3.4791967028442548 14.53823968527257 14.375092837796064 0.0 0.0 4.969616689786744e-17 0.42974384275341426 4.557813830360842 -0.4108617251570796 1.65079419358659e-07 4.565959413912442e-07 -4.564952517075739 -34.351696620226626 8.55404605568185 133.9261212863363 2.9865528072765097 -31.679445375899054 104.32263686455245 -138.35604146122432 5.726429896479085e-07 5.679826305443009e-06 1.5902773407317584e-15 0.0 0.0 136.68026237983707 -29.61570129303659 24.578558309495325 53.55677260066174 -2.0247051581780804e-06 -2.037903433948209e-06 7.951386703658792e-16 0.0 0.0
-0.0 69.04319763183594 0.0 4.798692283136115 -1.0408053551819372 -10.49524852400433 -8.800827685335502 -12.966277748959653 14.812200671420161 17.866661421590624 21.813378840120897 -26.962441268864204 0.0 0.0 -1.4908850069360234e-15 -2.617704705002237 -4.058878749921254 -9.374101017099752 -3.493615740128548 14.568535094261964 14.421642937923364 3.9756933518293955e-16 -1.034509288605506e-33 -2.9817700138720465e-16 0.416941344225772 4.568158911176397 -0.41094716594419006 1.4483168173951807e-07 -6.041617220010137e-07 -4.539771382852188 -34.346557761617156 8.531622480520516 133.7358866581114 2.0195847483261713 -31.925771460073445 102.37252056317249 -138.46437002102635 1.6054899354957414e-06 -2.532829460894923e-07 -1.3241718894150476e-31 -2.3854160110976376e-15 -6.3611093629270335e-15 136.68267794068026 -29.594501216956946 24.5326715455049 53.53991344354059 -1.2626961714113183e-06 7.459955713834379e-07 -7.95138670365879e-16 7.95138670365879e-16 5.517382872562698e-33
-0.0 69.04319763183594 0.0 4.615272882828802 -1.010019366418052 -10.290764131854097 -8.516879529225116 -12.729269405162453 14.291255856415555 17.556318801984435 21.737381783383814 -26.54108855895381 7.951386703658792e-16 -2.0000512913039782e-32 -2.882377680076312e-15 -2.4601820495976376 -4.069383527876994 -9.266403809109434 -2.9610581686805584 14.623046133470854 14.670870171877043 -3.9756933518293955e-16 -2.4848083448933722e-17 -9.939233379573489e-17 0.16646174801461264 4.672527546069674 -0.3307598566595022 1.6360541846682267e-07 -5.808685965169586e-07 -4.918820629514496 -33.987770169506426 8.498129766051386 137.06929272669882 1.865835039911516 -32.55853910604824 100.93843528009758 -138.1594935335689 -1.1101121603291454e-06 1.2628804330767809e-06 -1.5902773407317584e-15 -7.951386703658792e-16 -1.1034765745125397e-32 138.5792274113491 -30.0582131202193 26.296906791108647 52.300240537908806 6.650004809399327e-07 -2.80763333644589e-06 7.95138670365879e-16 7.951386703658792e-16 6.361109362927033e-15
